<?xml version="1.0" encoding="UTF-8"?>
<svg id="_图层_1" data-name="图层 1" xmlns="http://www.w3.org/2000/svg" viewBox="0 0 384 384">
  <defs>
    <style>
      .cls-1 {
        fill: #c4d6e5;
      }

      .cls-2 {
        fill: #6e9dfe;
      }

      .cls-3 {
        fill: #060606;
      }

      .cls-4 {
        fill: #e3ebf1;
      }

      .cls-5 {
        fill: #83878b;
      }

      .cls-6 {
        fill: #598ffe;
      }

      .cls-7 {
        fill: #eff4f9;
      }
    </style>
  </defs>
  <path class="cls-3" d="M108,0c53.8,7.33,84.91,58.47,90.62,108.95,9.09-6.53,18.53-13.1,28.91-18.46,30.22-15.59,63.67-24.9,97.42-25.65,9.13-.2,15.07,1.93,14.24,12.57-.39,10.17-.44,20.29-.15,30.35l12.84,4.51c4.12,1.58,8.5,3.76,9.28,8.5l11.34.06c6.15,1.12,11.07,4.57,11.5,11.17v243c-.61,5.39-3.66,8.31-9,9h-171l-3.12-1.15c-5.32-5.41-12.51-5.59-17.77-.06l-3.1,1.21H9c-5.4-.64-8.36-3.6-9-9v-36c.39-2.57,3.53-5.71,5.25-3,.82-3.08,8.9,1.89,6,4.12.58,0,1.48.14,1.5.5.41,6.43,1.06,24.57,0,30.11l-1.5.88c1.63-1.11,1.94-.64,1.12,1.12l.52-1.5h161.3l.93,1.5c-1.1-1.47.59-3.02,1.85-3.82,11.22-7.09,23.55-5.74,33.66,2.45,38.72-.25,77.46-.19,116.18-.06,3.53.01,7.06.24,10.59.48s7.06.58,10.59.95l1.61-1.49c7.87.16,15.59.28,23.14.37l-1.5-.72v-234.6l1.5-.93c-4.03-.53-8.04-.59-12.03-.18l.06,220.84c-.39,5.37-8.76,8.54-12.03,4.71l-.72,1.5-317.38.05c-3.04-.08-6.65-2.01-7.02-5.27l-.71-221.38c-.66-1.41-9.66-1.12-10.18.4l.03,172.5c-.23,3.23-5.26,8.06-7.53,4.95-2.06,2.8-4.73-.32-5.25-3v-178.5c1.23-11.94,13.51-11.73,22.85-11.2,1.37-4.64,4.38-6.58,8.59-8.5,8.74-3.99,19.66-6.44,28.86-7.98-.62-26.03-.54-52.08.24-78.13.55-2.49,1.67-4.48,4.12-5.51,5.37-2.26,26.93,5.42,32.88,8.05l1.46,2.02-1.41-.89c-.1-7.78-.13-15.56-.09-23.35l1.5-.89c-2.68-2.19.85-5.4,3.75-5.62h5.25Z"/>
  <path class="cls-7" d="M329.25,165c-1.28,1.07-3.75,3.02-3.75,4.88v124.88c-35.31.31-70.18,10.05-101,26.87l-26.5,17.38V127.12c34.31-31.61,81.06-47.56,127.5-49.12v58.12c0,1.86,2.47,3.81,3.75,4.88l3.63.91c.38,7.54.37,15.03-.03,22.48l-3.6.61Z"/>
  <path class="cls-4" d="M111,12.75c23.37,6.3,42.66,20.48,55.52,40.86,13.99,22.17,19.26,48.23,20.27,74.23l-.04,166.91c-2.89-3.42-4.37-8.43-6.61-12.5-12.42-22.56-30.63-39.29-54.69-48.81-4.76-1.88-9.76-3.04-14.44-5.06V12.75Z"/>
  <path class="cls-4" d="M62.25,117v140.62c0,2.73,17.79,6.25,21.16,7.34,33.39,10.81,63.16,32.61,84.56,60.19.85,1.1,7.44,9.46,6.78,10.09-31.88-14.32-66.06-18.61-100.76-14.14-12.91,1.66-25.39,5.1-37.98,8.14V124.5l26.25-7.5Z"/>
  <path class="cls-7" d="M73.5,34.5c5.82,1.69,11.76,3.28,17.44,5.44,2.21.84,8.44,2.69,8.83,4.67l.33,190.92,2.44,2.81c45,7.7,73.73,44.9,81.23,88.27l-13.12-16.13c-21.43-24.55-48.62-43.86-79.5-54.75-5.82-2.05-12.12-3.2-17.64-5.61V34.5Z"/>
  <path class="cls-2" d="M348.75,360.75c2.43,1.75,2.52,11.15-.75,12-45.87.25-91.78-.22-137.66.04-10.59-7.63-20.09-9.67-32.09-2.92-.97.54-2.91,2.88-3.12,2.88H12.38c-.08,0-1.12-1.05-1.12-1.12v-31.5c0-1.69-4.72-4.08-6-4.12v-22.5c2.42-.1,6.42-2.62,6.01-5.61v-171.74c-.15-4.11,12.51-2.88,13.16-1.94l.71,223.54c1.46,1.91,3.45,3.2,5.95,3.05l317.66-.04Z"/>
  <path class="cls-4" d="M329.25,141c2.2.68,7.5-.83,7.5-3.38v-16.88l11.25,3.75v204.75c-9.25-2.02-18.26-4.86-27.61-6.51-22.74-4.02-44.79-4.36-67.64-.99-.98.21-1.2.24-.75-.75,17.91-7.12,37.34-12.4,56.63-14.24,7.22-.69,15.88.1,22.42-.83,2.08-.29,4.11-1.15,5.31-2.94l.4-133.13c-.56-4.8-3.08-5.29-7.52-4.86.69-.58,2.13-.63,2.29-1.23,1.29-4.86-1.08-15.38.03-20.94.17-1.39-1.38-1.05-2.31-1.83Z"/>
  <path class="cls-6" d="M348,372.75c1.3-3.86.59-8,.75-12,4.18.31,9.86.31,10.54-4.84l-.04-220.54c.04-.88.34-1.48,1.23-1.77,1.77-.58,12.27-.59,12.27,1.77v236.25c0,.82-1.83,1.07-2.59,1.16-6.35.75-15.43-.07-22.16-.04Z"/>
  <path class="cls-1" d="M36,349.5c.3-1.52-.46-7.56.08-8.18.69-.8,17.79-4.99,20.31-5.56,34.35-7.76,70.52-7.24,103.55,5.68l16.31,8.06H36Z"/>
  <path class="cls-1" d="M207.75,349.5l16.31-8.06c33.03-12.91,69.2-13.43,103.55-5.68,2.52.57,19.62,4.77,20.31,5.56.53.62-.22,6.66.08,8.18h-140.25Z"/>
  <path class="cls-5" d="M252,321l.75.75c-.75.11-2.21,1.45-3.75.74-.22-1.19,1.87-1.04,3-1.49Z"/>
</svg>